<svg xmlns:dc="http://purl.org/dc/elements/1.1/" xmlns:cc="http://creativecommons.org/ns#" xmlns:rdf="http://www.w3.org/1999/02/22-rdf-syntax-ns#" xmlns:svg="http://www.w3.org/2000/svg" xmlns="http://www.w3.org/2000/svg" xmlns:xlink="http://www.w3.org/1999/xlink" id="svg239047" version="1.1" viewBox="382.28 320.42 259.45 127.16">   <metadata id="metadata239053">     <rdf:rdf>       <cc:work rdf:about="">         <dc:format>image/svg+xml</dc:format>         <dc:type rdf:resource="http://purl.org/dc/dcmitype/StillImage"></dc:type>       </cc:work>     </rdf:rdf>   </metadata>   <defs id="defs239051"></defs>   <linearGradient spreadMethod="pad" y2="30%" x2="-10%" y1="120%" x1="30%" id="3d_gradient2-logo-a43417a2-0000-46d1-888b-494b8521890b">     <stop id="stop239028" stop-opacity="1" stop-color="#ffffff" offset="0%"></stop>     <stop id="stop239030" stop-opacity="1" stop-color="#000000" offset="100%"></stop>   </linearGradient>   <linearGradient gradientTransform="rotate(-30)" spreadMethod="pad" y2="30%" x2="-10%" y1="120%" x1="30%" id="3d_gradient3-logo-a43417a2-0000-46d1-888b-494b8521890b">     <stop id="stop239033" stop-opacity="1" stop-color="#ffffff" offset="0%"></stop>     <stop id="stop239035" stop-opacity="1" stop-color="#cccccc" offset="50%"></stop>     <stop id="stop239037" stop-opacity="1" stop-color="#000000" offset="100%"></stop>   </linearGradient>   <g id="logo-group">     <image xlink:href="" id="container" x="272" y="144" width="480" height="480" transform="translate(0 0)" style="display: none;"></image>     <g id="logo-center" transform="translate(0 0)">       <image xlink:href="" id="icon_container" x="0" y="0" style="display: none;"></image>       <g id="slogan" style="font-style:normal;font-weight:400;font-size:32px;line-height:1;font-family:Montserrat;font-variant-ligatures:none;text-align:center;text-anchor:middle" transform="translate(0 0)"></g>       <g id="title" style="font-style:normal;font-weight:700;font-size:72px;line-height:1;font-family:'Comfortaa Bold Alt1';font-variant-ligatures:none;text-align:center;text-anchor:middle" transform="translate(0 0)">         <path id="path239056" style="font-style:normal;font-weight:700;font-size:72px;line-height:1;font-family:'Comfortaa Bold Alt1';font-variant-ligatures:none;text-align:center;text-anchor:middle" d="m 452.68719,9.504 c -2.952,0 -4.392,-1.44 -4.392,-4.392 v -16.776 c 0,-3.312 -0.792,-5.976 -2.304,-7.992 1.512,-2.016 2.304,-4.752 2.304,-8.064 v -16.776 c 0,-2.88 1.44,-4.392 4.392,-4.392 1.008,0 1.872,-0.288 2.592,-1.008 0.648,-0.648 1.008,-1.512 1.008,-2.592 0,-1.008 -0.36,-1.944 -1.008,-2.664 -0.72,-0.72 -1.584,-1.08 -2.592,-1.08 -7.848,0 -11.736,3.96 -11.736,11.736 v 16.776 c 0,2.952 -1.44,4.392 -4.32,4.392 -1.08,0 -1.944,0.36 -2.664,1.08 -0.72,0.72 -1.008,1.584 -1.008,2.592 0,1.08 0.288,1.944 1.008,2.592 0.72,0.72 1.584,1.008 2.664,1.008 2.88,0 4.32,1.512 4.32,4.392 V 5.112 c 0,7.848 3.888,11.736 11.736,11.736 1.008,0 1.872,-0.288 2.592,-1.008 0.648,-0.72 1.008,-1.584 1.008,-2.664 0,-1.008 -0.36,-1.872 -1.008,-2.592 -0.72,-0.72 -1.584,-1.08 -2.592,-1.08 z" stroke-width="0" stroke-linejoin="miter" stroke-miterlimit="2" fill="#151515" stroke="#151515" transform="translate(0 312.03207999999995) translate(382.2755006 8.388320000000007) scale(1.74) translate(-432.95919 56.232)"></path>         <path id="path239058" style="font-style:normal;font-weight:700;font-size:72px;line-height:1;font-family:'Comfortaa Bold Alt1';font-variant-ligatures:none;text-align:center;text-anchor:middle" d="m 496.72419,-37.656 c -0.36,-0.504 -0.864,-0.936 -1.44,-1.224 -0.504,-0.216 -1.08,-0.36 -1.656,-0.36 -0.648,0 -1.224,0.216 -1.8,0.504 -0.576,0.288 -0.936,0.72 -1.224,1.296 l -12.384,27 -12.528,-27 c -0.288,-0.576 -0.72,-1.008 -1.224,-1.296 -0.576,-0.288 -1.08,-0.504 -1.656,-0.504 -0.576,0 -1.08,0.144 -1.512,0.36 -1.368,0.72 -2.016,1.656 -2.016,2.952 0,0.504 0.072,0.936 0.288,1.296 l 15.264,32.184 c 0.432,0.864 0.864,1.512 1.44,1.872 0.504,0.36 1.152,0.504 2.016,0.504 1.44,0 2.592,-0.792 3.312,-2.376 l 15.264,-32.184 c 0.216,-0.432 0.36,-0.936 0.36,-1.368 0,-0.576 -0.216,-1.152 -0.504,-1.656 z" stroke-width="0" stroke-linejoin="miter" stroke-miterlimit="2" fill="#151515" stroke="#151515" transform="translate(0 312.03207999999995) translate(422.86100060000007 37.95439999999999) scale(1.74) translate(-459.28419 39.24)"></path>         <path id="path239060" style="font-style:normal;font-weight:700;font-size:72px;line-height:1;font-family:'Comfortaa Bold Alt1';font-variant-ligatures:none;text-align:center;text-anchor:middle" d="m 555.96781,-35.64 c -2.592,-2.736 -5.976,-4.104 -10.08,-4.104 -14.904,0 -22.68,0 -23.4,0 h -0.576 -13.968 c -0.936,0 -1.8,0.36 -2.448,1.008 -0.72,0.72 -1.008,1.512 -1.008,2.448 0,0.072 0,0.216 0,0.36 0,0.144 0,0.216 0,0.288 V -3.6 c 0,1.08 0.288,1.944 1.008,2.664 0.72,0.72 1.584,1.008 2.664,1.008 1.08,0 1.944,-0.288 2.664,-1.008 0.648,-0.72 1.008,-1.584 1.008,-2.664 v -20.304 c 0,-2.664 0.792,-4.824 2.376,-6.624 1.584,-1.728 3.672,-2.592 6.264,-2.592 2.448,0 4.392,0.792 5.832,2.304 1.44,1.512 2.232,3.744 2.232,6.624 V -3.6 c 0,1.08 0.288,1.944 1.008,2.664 0.72,0.72 1.584,1.008 2.664,1.008 1.08,0 1.944,-0.288 2.664,-1.008 0.648,-0.72 1.008,-1.584 1.008,-2.664 v -20.304 c 0,-2.664 0.792,-4.824 2.376,-6.624 1.584,-1.728 3.672,-2.592 6.192,-2.592 2.448,0 4.392,0.792 5.832,2.304 1.44,1.512 2.232,3.744 2.232,6.624 V -3.6 c 0,1.08 0.288,1.944 1.008,2.664 0.72,0.72 1.584,1.008 2.664,1.008 1.08,0 1.944,-0.288 2.664,-1.008 0.648,-0.72 1.008,-1.584 1.008,-2.664 v -20.592 c 0,-4.896 -1.296,-8.712 -3.888,-11.448 z" stroke-width="0" stroke-linejoin="miter" stroke-miterlimit="2" fill="#151515" stroke="#151515" transform="translate(0 312.03207999999995) translate(496.29529940000003 37.077439999999996) scale(1.74) translate(-504.48781 39.744)"></path>         <path id="path239062" style="font-style:normal;font-weight:700;font-size:72px;line-height:1;font-family:'Comfortaa Bold Alt1';font-variant-ligatures:none;text-align:center;text-anchor:middle" d="m 571.33981,9.504 c 2.88,0 4.392,-1.44 4.392,-4.392 v -16.776 c 0,-3.312 0.72,-5.976 2.304,-7.992 -1.584,-2.016 -2.304,-4.752 -2.304,-8.064 v -16.776 c 0,-2.88 -1.512,-4.392 -4.392,-4.392 -1.08,0 -1.944,-0.288 -2.592,-1.008 -0.72,-0.648 -1.008,-1.512 -1.008,-2.592 0,-1.008 0.288,-1.944 1.008,-2.664 0.648,-0.72 1.512,-1.08 2.592,-1.08 7.776,0 11.736,3.96 11.736,11.736 v 16.776 c 0,2.952 1.44,4.392 4.32,4.392 1.008,0 1.872,0.36 2.592,1.08 0.72,0.72 1.08,1.584 1.08,2.592 0,1.08 -0.36,1.944 -1.08,2.592 -0.72,0.72 -1.584,1.008 -2.592,1.008 -2.88,0 -4.32,1.512 -4.32,4.392 V 5.112 c 0,7.848 -3.96,11.736 -11.736,11.736 -1.08,0 -1.944,-0.288 -2.592,-1.008 -0.72,-0.72 -1.008,-1.584 -1.008,-2.664 0,-1.008 0.288,-1.872 1.008,-2.592 0.648,-0.72 1.512,-1.08 2.592,-1.08 z" stroke-width="0" stroke-linejoin="miter" stroke-miterlimit="2" fill="#151515" stroke="#151515" transform="translate(0 312.03207999999995) translate(601.1337794 8.388320000000007) scale(1.74) translate(-567.73981 56.232)"></path>       </g>       <image xlink:href="" id="icon" x="0" y="0" style="display: none;"></image>     </g>   </g> </svg>