<svg xmlns:dc="http://purl.org/dc/elements/1.1/" xmlns:cc="http://creativecommons.org/ns#" xmlns:rdf="http://www.w3.org/1999/02/22-rdf-syntax-ns#" xmlns:svg="http://www.w3.org/2000/svg" xmlns="http://www.w3.org/2000/svg" xmlns:xlink="http://www.w3.org/1999/xlink" id="svg44087" version="1.1" viewBox="228.64 320.42 566.73 127.16">   <metadata id="metadata44093">     <rdf:rdf>       <cc:work rdf:about="">         <dc:format>image/svg+xml</dc:format>         <dc:type rdf:resource="http://purl.org/dc/dcmitype/StillImage"></dc:type>       </cc:work>     </rdf:rdf>   </metadata>   <defs id="defs44091"></defs>   <linearGradient spreadMethod="pad" y2="30%" x2="-10%" y1="120%" x1="30%" id="3d_gradient2-logo-a43417a2-0000-46d1-888b-494b8521890b">     <stop id="stop44068" stop-opacity="1" stop-color="#ffffff" offset="0%"></stop>     <stop id="stop44070" stop-opacity="1" stop-color="#000000" offset="100%"></stop>   </linearGradient>   <linearGradient gradientTransform="rotate(-30)" spreadMethod="pad" y2="30%" x2="-10%" y1="120%" x1="30%" id="3d_gradient3-logo-a43417a2-0000-46d1-888b-494b8521890b">     <stop id="stop44073" stop-opacity="1" stop-color="#ffffff" offset="0%"></stop>     <stop id="stop44075" stop-opacity="1" stop-color="#cccccc" offset="50%"></stop>     <stop id="stop44077" stop-opacity="1" stop-color="#000000" offset="100%"></stop>   </linearGradient>   <g id="logo-group">     <image xlink:href="" id="container" x="272" y="144" width="480" height="480" transform="translate(0 0)" style="display: none;"></image>     <g id="logo-center" transform="translate(0 0)">       <image xlink:href="" id="icon_container" x="0" y="0" style="display: none;"></image>       <g id="slogan" style="font-style:normal;font-weight:400;font-size:32px;line-height:1;font-family:Montserrat;font-variant-ligatures:none;text-align:center;text-anchor:middle" transform="translate(0 0)"></g>       <g id="title" style="font-style:normal;font-weight:700;font-size:72px;line-height:1;font-family:'Comfortaa Bold Alt1';font-variant-ligatures:none;text-align:center;text-anchor:middle" transform="translate(0 0)">         <path id="path44096" style="font-style:normal;font-weight:700;font-size:72px;line-height:1;font-family:'Comfortaa Bold Alt1';font-variant-ligatures:none;text-align:center;text-anchor:middle" d="m 372.329,-29.88 c -1.584,-3.024 -3.816,-5.4 -6.624,-7.2 -2.808,-1.728 -5.904,-2.592 -9.36,-2.592 -2.808,0 -5.4,0.576 -7.776,1.728 -2.448,1.152 -4.464,2.808 -6.12,4.824 v -19.44 c 0,-1.08 -0.36,-1.944 -1.08,-2.664 -0.72,-0.648 -1.584,-1.008 -2.592,-1.008 -1.152,0 -2.016,0.36 -2.664,1.008 -0.72,0.72 -1.008,1.584 -1.008,2.664 v 32.832 1.296 15.336 c 0,0.936 0.288,1.728 1.008,2.376 0.648,0.72 1.44,1.008 2.448,1.008 h 15.912 0.144 0.288 c 3.672,0 7.056,-0.864 10.08,-2.592 3.024,-1.728 5.4,-4.176 7.2,-7.2 1.728,-3.024 2.592,-6.408 2.592,-10.224 0,-3.672 -0.864,-7.128 -2.448,-10.152 z m -6.336,17.064 c -1.152,2.088 -2.664,3.744 -4.608,4.896 -1.944,1.152 -4.104,1.728 -6.48,1.728 -2.448,0 -4.608,-0.576 -6.552,-1.728 -1.944,-1.152 -3.456,-2.808 -4.536,-4.896 -1.152,-2.016 -1.656,-4.32 -1.656,-6.912 0,-2.52 0.504,-4.824 1.656,-6.84 1.08,-2.016 2.592,-3.672 4.536,-4.824 1.944,-1.152 4.104,-1.8 6.552,-1.8 2.376,0 4.536,0.648 6.48,1.8 1.944,1.152 3.456,2.808 4.608,4.824 1.152,2.016 1.728,4.32 1.728,6.84 0,2.592 -0.576,4.896 -1.728,6.912 z" stroke-width="0" stroke-linejoin="miter" stroke-miterlimit="2" fill="#f0f0f0" stroke="#f0f0f0" transform="translate(0 312.03207999999995) translate(228.63664999999997 8.388320000000007) scale(1.74) translate(-335.105 56.232)"></path>         <path id="path44098" style="font-style:normal;font-weight:700;font-size:72px;line-height:1;font-family:'Comfortaa Bold Alt1';font-variant-ligatures:none;text-align:center;text-anchor:middle" d="m 423.386,-19.656 c 0,-3.672 -0.936,-7.128 -2.664,-10.152 -1.728,-3.024 -4.104,-5.472 -7.128,-7.2 -3.024,-1.728 -6.336,-2.664 -10.008,-2.664 -3.744,0 -7.128,0.936 -10.152,2.664 -3.024,1.728 -5.4,4.176 -7.128,7.2 -1.728,3.024 -2.592,6.408 -2.592,10.152 0,3.744 0.792,7.2 2.376,10.224 1.584,3.024 3.816,5.4 6.624,7.128 2.88,1.8 5.976,2.664 9.432,2.664 h 0.576 17.208 c 0.936,0 1.728,-0.36 2.448,-1.008 0.648,-0.648 1.008,-1.44 1.008,-2.448 V -3.6 Z m -30.96,6.912 c -1.152,-2.016 -1.656,-4.32 -1.656,-6.912 0,-2.52 0.504,-4.824 1.656,-6.912 1.152,-2.016 2.664,-3.672 4.608,-4.824 1.944,-1.152 4.104,-1.8 6.552,-1.8 2.376,0 4.536,0.648 6.48,1.8 1.944,1.152 3.456,2.808 4.608,4.824 1.08,2.088 1.656,4.392 1.656,6.912 0,2.592 -0.576,4.896 -1.656,6.912 -1.152,2.016 -2.664,3.672 -4.608,4.824 -1.944,1.152 -4.104,1.728 -6.48,1.728 -2.448,0 -4.608,-0.576 -6.552,-1.728 -1.944,-1.152 -3.456,-2.808 -4.608,-4.824 z" stroke-width="0" stroke-linejoin="miter" stroke-miterlimit="2" fill="#f0f0f0" stroke="#f0f0f0" transform="translate(0 312.03207999999995) translate(306.2563099999999 37.20272) scale(1.74) translate(-383.714 39.672)"></path>         <path id="path44100" style="font-style:normal;font-weight:700;font-size:72px;line-height:1;font-family:'Comfortaa Bold Alt1';font-variant-ligatures:none;text-align:center;text-anchor:middle" d="m 456.56225,-38.16 c -2.448,-1.008 -5.256,-1.512 -8.352,-1.512 -2.592,0 -4.968,0.432 -7.2,1.224 -2.304,0.864 -4.104,2.088 -5.472,3.672 -1.44,1.656 -2.088,3.672 -2.088,5.976 0,5.832 4.608,9.648 13.824,11.376 3.528,0.72 6.048,1.512 7.56,2.52 1.44,1.008 2.232,2.232 2.232,3.672 0,1.584 -0.792,2.808 -2.304,3.672 -1.512,0.936 -3.6,1.368 -6.336,1.368 -2.088,0 -4.032,-0.36 -5.832,-1.08 -1.872,-0.72 -3.24,-1.656 -4.104,-2.664 -0.864,-0.864 -1.8,-1.296 -2.736,-1.296 -0.792,0 -1.656,0.36 -2.52,1.008 -1.008,0.72 -1.44,1.656 -1.44,2.808 0,0.864 0.288,1.656 0.936,2.232 1.584,1.656 3.888,2.952 6.768,3.96 2.88,1.008 5.904,1.512 9.216,1.512 3.24,0 6.048,-0.504 8.352,-1.512 2.304,-1.008 4.104,-2.448 5.328,-4.248 1.152,-1.8 1.8,-3.816 1.8,-6.048 0,-2.952 -1.152,-5.4 -3.312,-7.272 -2.16,-1.872 -5.904,-3.312 -11.088,-4.392 -2.592,-0.504 -4.536,-1.008 -5.832,-1.584 -1.368,-0.576 -2.304,-1.152 -2.736,-1.8 -0.504,-0.648 -0.72,-1.44 -0.72,-2.448 0,-1.296 0.648,-2.376 2.088,-3.096 1.44,-0.72 3.24,-1.152 5.472,-1.152 1.872,0 3.528,0.288 4.896,0.72 1.296,0.432 2.592,1.224 3.816,2.304 1.008,0.936 2.088,1.368 3.384,1.368 0.792,0 1.44,-0.144 2.016,-0.576 0.792,-0.648 1.224,-1.368 1.224,-2.232 0,-0.72 -0.36,-1.512 -0.936,-2.304 -1.44,-1.728 -3.456,-3.168 -5.904,-4.176 z" stroke-width="0" stroke-linejoin="miter" stroke-miterlimit="2" fill="#f0f0f0" stroke="#f0f0f0" transform="translate(0 312.03207999999995) translate(382.955945 37.20272) scale(1.74) translate(-431.79425 39.672)"></path>         <path id="path44102" style="font-style:normal;font-weight:700;font-size:72px;line-height:1;font-family:'Comfortaa Bold Alt1';font-variant-ligatures:none;text-align:center;text-anchor:middle" d="m 475.208,-38.376 c -0.72,0.72 -1.008,1.584 -1.008,2.664 v 32.04 c 0,1.08 0.288,1.944 1.008,2.664 0.72,0.72 1.584,1.008 2.664,1.008 1.08,0 1.944,-0.288 2.664,-1.008 0.648,-0.72 1.008,-1.584 1.008,-2.664 v -32.04 c 0,-1.08 -0.36,-1.944 -1.008,-2.664 -0.72,-0.648 -1.584,-1.008 -2.664,-1.008 -1.08,0 -1.944,0.36 -2.664,1.008 z" stroke-width="0" stroke-linejoin="miter" stroke-miterlimit="2" fill="#f0f0f0" stroke="#f0f0f0" transform="translate(0 312.03207999999995) translate(449.78195 37.70384) scale(1.74) translate(-474.2 39.384)"></path>         <path id="path44104" style="font-style:normal;font-weight:700;font-size:72px;line-height:1;font-family:'Comfortaa Bold Alt1';font-variant-ligatures:none;text-align:center;text-anchor:middle" d="m 526.88487,-33.192 c -3.74399,-4.32 -8.496,-6.48 -14.112,-6.48 -3.74399,0 -7.12799,0.864 -10.07999,2.592 -3.024,1.728 -5.32801,4.104 -6.98401,7.128 -1.656,3.024 -2.448,6.48 -2.448,10.296 0,3.744 0.792,7.2 2.52,10.224 1.728,3.024 4.10401,5.4 7.12801,7.128 3.024,1.728 6.40799,2.592 10.224,2.592 5.18399,0 9.504,-1.584 12.96,-4.824 0.57599,-0.576 0.86399,-1.224 0.86399,-1.944 0,-0.936 -0.504,-1.8 -1.36799,-2.592 -0.57601,-0.432 -1.22401,-0.648 -1.87201,-0.648 -0.86399,0 -1.8,0.36 -2.664,1.008 -2.016,1.728 -4.67999,2.52 -7.91999,2.52 -2.52001,0 -4.75201,-0.576 -6.69601,-1.728 -1.94399,-1.152 -3.45599,-2.736 -4.536,-4.752 -1.08,-2.016 -1.584,-4.392 -1.584,-6.984 0,-4.032 1.15201,-7.344 3.456,-9.792 2.304,-2.448 5.25601,-3.744 9,-3.744 1.8,0 3.38401,0.36 4.824,0.936 1.44,0.576 2.73601,1.512 3.96,2.808 0.72001,0.864 1.65601,1.296 2.808,1.296 0.576,0 1.15201,-0.144 1.65601,-0.504 1.00799,-0.72 1.58399,-1.584 1.58399,-2.664 0,-0.72 -0.288,-1.296 -0.72,-1.872 z" stroke-width="0" stroke-linejoin="miter" stroke-miterlimit="2" fill="#f0f0f0" stroke="#f0f0f0" transform="translate(0 312.03207999999995) translate(475.98786380000007 37.20272) scale(1.74) translate(-493.26087 39.672)"></path>         <path id="path44106" style="font-style:normal;font-weight:700;font-size:72px;line-height:1;font-family:'Comfortaa Bold Alt1';font-variant-ligatures:none;text-align:center;text-anchor:middle" d="m 554.42938,9.504 c -2.952,0 -4.39201,-1.44 -4.39201,-4.392 v -16.776 c 0,-3.312 -0.792,-5.976 -2.30399,-7.992 1.51199,-2.016 2.30399,-4.752 2.30399,-8.064 v -16.776 c 0,-2.88 1.44001,-4.392 4.39201,-4.392 1.00799,0 1.87199,-0.288 2.592,-1.008 0.64799,-0.648 1.00799,-1.512 1.00799,-2.592 0,-1.008 -0.36,-1.944 -1.00799,-2.664 -0.72001,-0.72 -1.58401,-1.08 -2.592,-1.08 -7.84801,0 -11.73601,3.96 -11.73601,11.736 v 16.776 c 0,2.952 -1.44,4.392 -4.32,4.392 -1.08,0 -1.94399,0.36 -2.66399,1.08 -0.72001,0.72 -1.00801,1.584 -1.00801,2.592 0,1.08 0.288,1.944 1.00801,2.592 0.72,0.72 1.58399,1.008 2.66399,1.008 2.88,0 4.32,1.512 4.32,4.392 V 5.112 c 0,7.848 3.888,11.736 11.73601,11.736 1.00799,0 1.87199,-0.288 2.592,-1.008 0.64799,-0.72 1.00799,-1.584 1.00799,-2.664 0,-1.008 -0.36,-1.872 -1.00799,-2.592 -0.72001,-0.72 -1.58401,-1.08 -2.592,-1.08 z" stroke-width="0" stroke-linejoin="miter" stroke-miterlimit="2" fill="#f0f0f0" stroke="#f0f0f0" transform="translate(0 312.03207999999995) translate(541.1343338000001 8.388320000000007) scale(1.74) translate(-534.70137 56.232)"></path>         <path id="path44108" style="font-style:normal;font-weight:700;font-size:72px;line-height:1;font-family:'Comfortaa Bold Alt1';font-variant-ligatures:none;text-align:center;text-anchor:middle" d="m 598.46637,-37.656 c -0.36,-0.504 -0.86399,-0.936 -1.43999,-1.224 -0.50401,-0.216 -1.08001,-0.36 -1.65601,-0.36 -0.64799,0 -1.22399,0.216 -1.79999,0.504 -0.57601,0.288 -0.93601,0.72 -1.22401,1.296 l -12.384,27 -12.52799,-27 c -0.288,-0.576 -0.72,-1.008 -1.22401,-1.296 -0.576,-0.288 -1.08,-0.504 -1.65599,-0.504 -0.576,0 -1.08001,0.144 -1.51201,0.36 -1.36799,0.72 -2.01599,1.656 -2.01599,2.952 0,0.504 0.072,0.936 0.288,1.296 l 15.264,32.184 c 0.43199,0.864 0.86399,1.512 1.43999,1.872 0.504,0.36 1.15201,0.504 2.016,0.504 1.44,0 2.59201,-0.792 3.312,-2.376 l 15.264,-32.184 c 0.216,-0.432 0.36,-0.936 0.36,-1.368 0,-0.576 -0.216,-1.152 -0.504,-1.656 z" stroke-width="0" stroke-linejoin="miter" stroke-miterlimit="2" fill="#f0f0f0" stroke="#f0f0f0" transform="translate(0 312.03207999999995) translate(579.9798512000002 37.95439999999999) scale(1.74) translate(-561.02638 39.24)"></path>         <path id="path44110" style="font-style:normal;font-weight:700;font-size:72px;line-height:1;font-family:'Comfortaa Bold Alt1';font-variant-ligatures:none;text-align:center;text-anchor:middle" d="m 657.71,-35.64 c -2.592,-2.736 -5.976,-4.104 -10.08,-4.104 -14.904,0 -22.68,0 -23.4,0 h -0.576 -13.968 c -0.936,0 -1.8,0.36 -2.448,1.008 -0.72,0.72 -1.008,1.512 -1.008,2.448 0,0.072 0,0.216 0,0.36 0,0.144 0,0.216 0,0.288 V -3.6 c 0,1.08 0.288,1.944 1.008,2.664 0.72,0.72 1.584,1.008 2.664,1.008 1.08,0 1.944,-0.288 2.664,-1.008 0.648,-0.72 1.008,-1.584 1.008,-2.664 v -20.304 c 0,-2.664 0.792,-4.824 2.376,-6.624 1.584,-1.728 3.672,-2.592 6.264,-2.592 2.448,0 4.392,0.792 5.832,2.304 1.44,1.512 2.232,3.744 2.232,6.624 V -3.6 c 0,1.08 0.288,1.944 1.008,2.664 0.72,0.72 1.584,1.008 2.664,1.008 1.08,0 1.944,-0.288 2.664,-1.008 0.648,-0.72 1.008,-1.584 1.008,-2.664 v -20.304 c 0,-2.664 0.792,-4.824 2.376,-6.624 1.584,-1.728 3.672,-2.592 6.192,-2.592 2.448,0 4.392,0.792 5.832,2.304 1.44,1.512 2.232,3.744 2.232,6.624 V -3.6 c 0,1.08 0.288,1.944 1.008,2.664 0.72,0.72 1.584,1.008 2.664,1.008 1.08,0 1.944,-0.288 2.664,-1.008 0.648,-0.72 1.008,-1.584 1.008,-2.664 v -20.592 c 0,-4.896 -1.296,-8.712 -3.888,-11.448 z" stroke-width="0" stroke-linejoin="miter" stroke-miterlimit="2" fill="#f0f0f0" stroke="#f0f0f0" transform="translate(0 312.03207999999995) translate(651.6741500000002 37.077439999999996) scale(1.74) translate(-606.23 39.744)"></path>         <path id="path44112" style="font-style:normal;font-weight:700;font-size:72px;line-height:1;font-family:'Comfortaa Bold Alt1';font-variant-ligatures:none;text-align:center;text-anchor:middle" d="m 673.082,9.504 c 2.88,0 4.392,-1.44 4.392,-4.392 v -16.776 c 0,-3.312 0.72,-5.976 2.304,-7.992 -1.584,-2.016 -2.304,-4.752 -2.304,-8.064 v -16.776 c 0,-2.88 -1.512,-4.392 -4.392,-4.392 -1.08,0 -1.944,-0.288 -2.592,-1.008 -0.72,-0.648 -1.008,-1.512 -1.008,-2.592 0,-1.008 0.288,-1.944 1.008,-2.664 0.648,-0.72 1.512,-1.08 2.592,-1.08 7.776,0 11.736,3.96 11.736,11.736 v 16.776 c 0,2.952 1.44,4.392 4.32,4.392 1.008,0 1.872,0.36 2.592,1.08 0.72,0.72 1.08,1.584 1.08,2.592 0,1.08 -0.36,1.944 -1.08,2.592 -0.72,0.72 -1.584,1.008 -2.592,1.008 -2.88,0 -4.32,1.512 -4.32,4.392 V 5.112 c 0,7.848 -3.96,11.736 -11.736,11.736 -1.08,0 -1.944,-0.288 -2.592,-1.008 -0.72,-0.72 -1.008,-1.584 -1.008,-2.664 0,-1.008 0.288,-1.872 1.008,-2.592 0.648,-0.72 1.512,-1.08 2.592,-1.08 z" stroke-width="0" stroke-linejoin="miter" stroke-miterlimit="2" fill="#f0f0f0" stroke="#f0f0f0" transform="translate(0 312.03207999999995) translate(754.77263 8.388320000000007) scale(1.74) translate(-669.482 56.232)"></path>       </g>       <image xlink:href="" id="icon" x="0" y="0" style="display: none;"></image>     </g>   </g> </svg>